<svg xmlns="http://www.w3.org/2000/svg" xmlns:xlink="http://www.w3.org/1999/xlink" version="1.1" x="0px" y="0px" viewBox="0 0 100 125" enable-background="new 0 0 100 100" xml:space="preserve"><path d="M50,4.5C24.911,4.5,4.5,24.911,4.5,50S24.911,95.5,50,95.5S95.5,75.089,95.5,50S75.089,4.5,50,4.5z   M43.93,88.43c0-3.347,2.723-6.07,6.07-6.07s6.07,2.723,6.07,6.07c0,1.769-0.765,3.358-1.976,4.469  c0.284-0.593,0.455-1.249,0.455-1.949c0-2.509-2.041-4.55-4.55-4.55s-4.55,2.041-4.55,4.55c0,0.7,0.172,1.356,0.455,1.949  C44.695,91.788,43.93,90.198,43.93,88.43z M46.98,92.48c0,0.131,0.022,0.256,0.039,0.383c-0.356-0.553-0.569-1.208-0.569-1.913  c0-1.958,1.593-3.55,3.55-3.55s3.55,1.592,3.55,3.55c0,0.706-0.213,1.36-0.569,1.913c0.016-0.127,0.039-0.252,0.039-0.383  c0-1.665-1.354-3.02-3.02-3.02S46.98,90.815,46.98,92.48z M57.07,88.43c0-3.898-3.172-7.07-7.07-7.07s-7.07,3.171-7.07,7.07  c0,1.669,0.585,3.202,1.555,4.413c-2.73-1.799-4.538-4.888-4.538-8.395c0-5.543,4.51-10.052,10.053-10.052  s10.053,4.509,10.053,10.052c0,3.507-1.808,6.596-4.538,8.395C56.486,91.632,57.07,90.099,57.07,88.43z M48.044,92.957  c-0.038-0.154-0.063-0.312-0.063-0.477c0-1.114,0.906-2.02,2.02-2.02s2.02,0.906,2.02,2.02c0,0.165-0.026,0.323-0.063,0.477  c-0.229-0.87-1.016-1.517-1.956-1.517S48.273,92.087,48.044,92.957z M61.053,84.447c0-6.094-4.958-11.052-11.053-11.052  s-11.053,4.958-11.053,11.052c0,3.377,1.526,6.4,3.92,8.429c-5.64-2.681-9.557-8.418-9.557-15.066c0-9.203,7.487-16.69,16.69-16.69  s16.69,7.487,16.69,16.69c0,6.649-3.918,12.385-9.557,15.066C59.527,90.847,61.053,87.824,61.053,84.447z M48.97,93.47  c0-0.568,0.462-1.03,1.03-1.03s1.03,0.462,1.03,1.03S50.568,94.5,50,94.5S48.97,94.038,48.97,93.47z M67.69,77.81  c0-9.754-7.936-17.69-17.69-17.69s-17.69,7.936-17.69,17.69c0,6.399,3.426,11.997,8.529,15.104  C30.273,89.14,22.69,79.036,22.69,67.19c0-15.059,12.251-27.31,27.31-27.31s27.31,12.251,27.31,27.31  c0,11.846-7.583,21.95-18.148,25.724C64.264,89.808,67.69,84.209,67.69,77.81z M61.883,92.876  c9.689-4.5,16.427-14.318,16.427-25.686c0-15.61-12.699-28.31-28.31-28.31s-28.31,12.7-28.31,28.31  c0,11.368,6.738,21.186,16.427,25.686C19.333,87.663,5.5,70.422,5.5,50C5.5,25.462,25.463,5.5,50,5.5S94.5,25.462,94.5,50  C94.5,70.422,80.667,87.663,61.883,92.876z"/><text x="0" y="115" fill="#000000" font-size="5px" font-weight="bold" font-family="'Helvetica Neue', Helvetica, Arial-Unicode, Arial, Sans-serif">Created by Jae Aquino</text><text x="0" y="120" fill="#000000" font-size="5px" font-weight="bold" font-family="'Helvetica Neue', Helvetica, Arial-Unicode, Arial, Sans-serif">from the Noun Project</text></svg>