<svg xmlns="http://www.w3.org/2000/svg" xmlns:xlink="http://www.w3.org/1999/xlink" version="1.1" x="0px" y="0px" viewBox="0 0 100 125" enable-background="new 0 0 100 100" xml:space="preserve"><g><defs><rect id="b" x="5.5" y="5.294" width="75" height="75"/></defs><clipPath id="a"><use xlink:href="#b" overflow="visible"/></clipPath><path clip-path="url(#a)" fill="#000000" d="M91.271,67.738c-0.21,0.142-0.319,0.401-0.246,0.657   c0.091,0.318,0.425,0.503,0.742,0.411c0.319-0.092,0.503-0.424,0.412-0.742c-0.08-0.277-0.345-0.441-0.623-0.421   c-2.255-7.137-6.925-13.016-13.231-16.576c-6.309-3.562-13.675-4.479-20.811-2.644c-0.131-0.246-0.408-0.385-0.688-0.305   c-0.318,0.091-0.502,0.423-0.412,0.743c0.092,0.318,0.424,0.503,0.744,0.411c0.256-0.074,0.418-0.304,0.426-0.558   C72.088,44.991,86.687,53.236,91.271,67.738 M83.922,79.457c-0.244,0.069-0.428,0.282-0.438,0.548   c-0.013,0.331,0.247,0.61,0.579,0.621c0.33,0.012,0.608-0.248,0.619-0.579c0.011-0.289-0.188-0.525-0.459-0.593   c0.06-7.483-2.563-14.518-7.464-19.854c-4.898-5.335-11.622-8.483-18.975-8.943c-0.047-0.275-0.27-0.493-0.56-0.503   c-0.332-0.011-0.608,0.248-0.62,0.579c-0.014,0.331,0.247,0.609,0.579,0.621c0.265,0.009,0.491-0.16,0.577-0.398   C72.703,51.896,84.043,64.246,83.922,79.457 M72.726,88.718c-0.113,0.311,0.047,0.655,0.36,0.769   c0.31,0.113,0.653-0.047,0.768-0.359c0.098-0.271-0.02-0.559-0.256-0.706c2.371-7.099,2.048-14.599-0.963-21.188   c-3.01-6.587-8.432-11.66-15.282-14.37c0.041-0.275-0.103-0.551-0.376-0.651c-0.312-0.112-0.655,0.049-0.768,0.36   c-0.114,0.31,0.045,0.655,0.357,0.768c0.25,0.092,0.516,0,0.671-0.198c13.921,5.511,20.888,20.761,16.073,35.189   C73.058,88.322,72.816,88.466,72.726,88.718 M59.801,93.679c-0.204,0.261-0.157,0.638,0.103,0.842   c0.263,0.204,0.64,0.158,0.845-0.104c0.174-0.223,0.131-0.516-0.041-0.728c4.459-6.025,6.476-13.267,5.647-20.471   c-0.828-7.203-4.423-13.711-10.112-18.405c0.115-0.247,0.086-0.542-0.139-0.718c-0.262-0.204-0.639-0.158-0.843,0.103   c-0.203,0.261-0.157,0.638,0.104,0.843c0.206,0.159,0.464,0.124,0.673-0.008c11.572,9.546,13.489,26.243,4.418,38.491   C60.222,93.444,59.961,93.473,59.801,93.679 M45.977,94.402c-0.275,0.185-0.347,0.558-0.162,0.833s0.558,0.347,0.833,0.162   c0.236-0.159,0.285-0.45,0.188-0.705c6.103-4.353,10.258-10.617,11.698-17.724c1.438-7.106,0.029-14.406-3.932-20.631   c0.188-0.198,0.25-0.488,0.091-0.725c-0.187-0.276-0.56-0.347-0.833-0.162c-0.275,0.186-0.347,0.557-0.162,0.832   c0.145,0.217,0.402,0.263,0.641,0.201c8.058,12.654,4.722,29.127-7.691,37.972C46.449,94.311,46.193,94.256,45.977,94.402    M32.193,91.562c0.091,0.317,0.423,0.503,0.742,0.412c0.277-0.081,0.44-0.346,0.42-0.622c7.138-2.255,13.016-6.925,16.577-13.233   c3.56-6.307,4.478-13.674,2.644-20.81c0.246-0.129,0.385-0.408,0.303-0.688c-0.09-0.317-0.422-0.501-0.741-0.411   c-0.318,0.092-0.502,0.424-0.41,0.742c0.071,0.257,0.302,0.418,0.556,0.427c3.725,14.501-4.52,29.103-19.021,33.688   c-0.141-0.21-0.4-0.321-0.657-0.247C32.286,90.909,32.102,91.243,32.193,91.562 M20.374,83.858   c-0.011,0.331,0.248,0.607,0.579,0.62c0.282,0.01,0.515-0.182,0.588-0.442c0.087,0.001,0.173,0.004,0.26,0.004   c7.39,0,14.323-2.642,19.599-7.485c5.335-4.898,8.484-11.621,8.944-18.976c0.276-0.047,0.491-0.269,0.502-0.558   c0.011-0.332-0.248-0.61-0.579-0.621c-0.331-0.013-0.609,0.248-0.621,0.579c-0.009,0.266,0.161,0.491,0.399,0.577   C49.109,72.42,36.889,83.74,21.788,83.74c-0.08,0-0.161-0.003-0.241-0.004c-0.064-0.253-0.279-0.448-0.552-0.457   C20.664,83.268,20.386,83.527,20.374,83.858 M11.514,72.878c-0.113,0.312,0.047,0.655,0.359,0.771   c0.27,0.098,0.557-0.02,0.704-0.254c3.112,1.039,6.3,1.576,9.456,1.576c4.044,0,8.033-0.851,11.734-2.541   c6.587-3.01,11.66-8.431,14.37-15.281c0.276,0.04,0.551-0.105,0.651-0.377c0.113-0.312-0.048-0.656-0.359-0.77   c-0.311-0.112-0.656,0.047-0.769,0.359c-0.091,0.25,0,0.516,0.199,0.672c-5.51,13.92-20.763,20.887-35.19,16.072   c0.009-0.253-0.136-0.494-0.386-0.585C11.972,72.407,11.626,72.567,11.514,72.878 M6.479,59.699   c-0.204,0.261-0.158,0.638,0.103,0.842c0.223,0.175,0.514,0.131,0.726-0.038c5.133,3.802,11.149,5.829,17.277,5.829   c1.063,0,2.131-0.061,3.197-0.183c7.203-0.828,13.709-4.424,18.405-10.113c0.248,0.115,0.543,0.086,0.718-0.138   c0.204-0.261,0.158-0.638-0.103-0.842c-0.261-0.204-0.638-0.158-0.842,0.102c-0.16,0.206-0.125,0.465,0.006,0.673   c-9.546,11.574-26.242,13.491-38.49,4.418c0.079-0.233,0.051-0.493-0.155-0.653C7.061,59.392,6.684,59.438,6.479,59.699    M6.543,46.441c0.147-0.198,0.2-0.454,0.054-0.67c-0.185-0.276-0.558-0.349-0.833-0.162c-0.275,0.184-0.347,0.557-0.162,0.833   c0.159,0.236,0.451,0.285,0.706,0.188c4.351,6.104,10.615,10.258,17.723,11.696c1.829,0.371,3.672,0.553,5.506,0.553   c5.292,0,10.507-1.536,15.13-4.479c0.199,0.182,0.485,0.245,0.719,0.088c0.275-0.186,0.347-0.559,0.162-0.833   c-0.185-0.276-0.558-0.348-0.833-0.163c-0.216,0.146-0.262,0.402-0.201,0.642C31.862,62.191,15.389,58.855,6.543,46.441    M9.935,33.056c0.21-0.142,0.32-0.4,0.246-0.656c-0.091-0.32-0.424-0.503-0.741-0.411c-0.32,0.091-0.504,0.423-0.413,0.742   c0.081,0.276,0.344,0.44,0.622,0.42c2.256,7.138,6.925,13.016,13.233,16.577c4.203,2.372,8.876,3.581,13.638,3.581   c2.387,0,4.794-0.318,7.176-0.931c0.132,0.241,0.408,0.375,0.684,0.296c0.317-0.091,0.501-0.423,0.41-0.741   s-0.424-0.503-0.742-0.41c-0.256,0.073-0.417,0.303-0.426,0.556C29.122,55.798,14.52,47.558,9.935,33.056 M17.284,21.337   c0.243-0.069,0.428-0.281,0.437-0.549c0.012-0.331-0.248-0.608-0.579-0.621c-0.331-0.01-0.609,0.248-0.62,0.58   c-0.01,0.289,0.191,0.526,0.461,0.593c-0.06,7.484,2.564,14.519,7.463,19.854c4.898,5.335,11.621,8.484,18.975,8.944   c0.047,0.273,0.27,0.491,0.559,0.502c0.331,0.011,0.609-0.248,0.62-0.579c0.012-0.331-0.247-0.609-0.578-0.621   c-0.267-0.009-0.492,0.16-0.578,0.397C28.501,48.899,17.163,36.547,17.284,21.337 M28.479,12.076   c0.113-0.31-0.047-0.656-0.359-0.768c-0.311-0.113-0.655,0.047-0.769,0.357c-0.098,0.272,0.019,0.561,0.256,0.706   c-2.371,7.101-2.048,14.6,0.962,21.188c3.01,6.588,8.431,11.66,15.282,14.37c-0.04,0.275,0.105,0.551,0.377,0.65   c0.311,0.114,0.656-0.048,0.769-0.357c0.113-0.312-0.047-0.656-0.359-0.77c-0.25-0.092-0.515-0.001-0.671,0.199   c-13.921-5.511-20.888-20.762-16.073-35.19C28.147,12.473,28.389,12.327,28.479,12.076 M41.403,7.115   c0.204-0.26,0.159-0.637-0.102-0.841c-0.262-0.204-0.639-0.159-0.843,0.103c-0.176,0.225-0.132,0.518,0.039,0.729   c-4.459,6.023-6.475,13.266-5.647,20.471c0.828,7.203,4.423,13.709,10.113,18.405c-0.115,0.248-0.086,0.542,0.138,0.718   c0.261,0.204,0.638,0.158,0.842-0.103c0.204-0.263,0.158-0.64-0.103-0.844c-0.206-0.159-0.464-0.124-0.673,0.009   C33.597,36.216,31.679,19.52,40.75,7.271C40.983,7.351,41.244,7.322,41.403,7.115 M55.229,6.393   c0.274-0.187,0.347-0.56,0.161-0.833c-0.184-0.276-0.557-0.349-0.833-0.162c-0.236,0.158-0.285,0.45-0.188,0.706   c-6.102,4.351-10.257,10.615-11.696,17.723s-0.03,14.405,3.93,20.63c-0.186,0.2-0.249,0.489-0.091,0.726   c0.185,0.274,0.558,0.347,0.833,0.162c0.276-0.186,0.347-0.558,0.162-0.833c-0.145-0.218-0.402-0.264-0.641-0.201   c-8.056-12.654-4.72-29.126,7.691-37.973C54.756,6.484,55.013,6.537,55.229,6.393 M69.012,9.233   c-0.09-0.319-0.424-0.503-0.741-0.412c-0.278,0.081-0.44,0.345-0.421,0.622c-7.137,2.255-13.016,6.924-16.577,13.233   c-3.56,6.307-4.477,13.674-2.643,20.81c-0.247,0.129-0.385,0.408-0.304,0.687c0.091,0.318,0.423,0.503,0.742,0.411   c0.319-0.09,0.502-0.423,0.411-0.741c-0.073-0.258-0.303-0.419-0.557-0.428c-3.723-14.501,4.521-29.101,19.023-33.686   c0.142,0.21,0.4,0.318,0.656,0.246C68.92,9.885,69.104,9.552,69.012,9.233 M80.832,16.937c0.01-0.331-0.248-0.609-0.58-0.62   c-0.289-0.011-0.526,0.189-0.592,0.461c-7.471-0.06-14.519,2.563-19.854,7.463c-5.335,4.898-8.483,11.62-8.943,18.974   c-0.274,0.047-0.492,0.27-0.503,0.56c-0.011,0.332,0.248,0.608,0.579,0.621s0.608-0.248,0.621-0.579   c0.009-0.268-0.161-0.491-0.397-0.577c0.933-14.864,13.154-26.183,28.256-26.183c0.08,0,0.16,0.002,0.24,0.003   c0.064,0.253,0.279,0.446,0.553,0.457C80.543,17.528,80.819,17.268,80.832,16.937 M89.692,27.915   c0.112-0.311-0.048-0.654-0.358-0.769c-0.271-0.1-0.56,0.019-0.707,0.256c-7.099-2.371-14.599-2.049-21.188,0.963   c-6.587,3.01-11.66,8.43-14.37,15.281c-0.275-0.04-0.551,0.104-0.65,0.377c-0.112,0.31,0.047,0.656,0.358,0.768   c0.312,0.114,0.656-0.047,0.771-0.357c0.091-0.251-0.002-0.517-0.201-0.672c5.512-13.919,20.759-20.89,35.191-16.073   c-0.01,0.253,0.135,0.495,0.385,0.586C89.233,28.388,89.58,28.228,89.692,27.915 M94.726,41.096   c0.204-0.263,0.157-0.64-0.103-0.844c-0.225-0.175-0.517-0.131-0.729,0.04c-6.022-4.459-13.261-6.473-20.472-5.646   c-7.201,0.828-13.709,4.423-18.403,10.112c-0.248-0.115-0.544-0.086-0.72,0.139c-0.203,0.261-0.157,0.637,0.104,0.842   c0.261,0.204,0.636,0.158,0.843-0.103c0.159-0.206,0.125-0.465-0.008-0.673c9.545-11.571,26.24-13.491,38.49-4.418   c-0.078,0.234-0.051,0.493,0.154,0.654C94.145,41.403,94.521,41.357,94.726,41.096 M95.603,54.353   c-0.159-0.236-0.451-0.285-0.706-0.188c-4.352-6.102-10.615-10.258-17.723-11.695c-7.11-1.439-14.405-0.03-20.629,3.93   c-0.2-0.187-0.49-0.25-0.727-0.091c-0.273,0.186-0.347,0.558-0.162,0.833c0.184,0.274,0.557,0.348,0.833,0.162   c0.218-0.146,0.263-0.402,0.201-0.642c12.654-8.055,29.127-4.72,37.972,7.692c-0.146,0.199-0.199,0.454-0.054,0.67   c0.185,0.274,0.556,0.347,0.832,0.162C95.715,55,95.789,54.627,95.603,54.353"/></g><text x="0" y="115" fill="#000000" font-size="5px" font-weight="bold" font-family="'Helvetica Neue', Helvetica, Arial-Unicode, Arial, Sans-serif">Created by Rediffusion</text><text x="0" y="120" fill="#000000" font-size="5px" font-weight="bold" font-family="'Helvetica Neue', Helvetica, Arial-Unicode, Arial, Sans-serif">from the Noun Project</text></svg>
